<mxfile host="app.diagrams.net" modified="2023-09-14T10:45:24.357Z" agent="Mozilla/5.0 (Windows NT 10.0; Win64; x64) AppleWebKit/537.36 (KHTML, like Gecko) Chrome/116.0.0.0 Safari/537.36 OPR/102.0.0.0" version="21.7.4" etag="-f8syxzy9q1GVH5mKM0c" type="github">
  <diagram name="PÃ¡gina-1" id="RAHBSDBwlKW0Cuo0m4Oq">
    <mxGraphModel>
      <root>
        <mxCell id="0" />
        <mxCell id="1" parent="0" />
      </root>
    </mxGraphModel>
  </diagram>
</mxfile>
